<svg xmlns="http://www.w3.org/2000/svg" viewBox="0 0 64 64" fill="none">
  <defs>
    <linearGradient id="patients-bg" x1="32" y1="4" x2="32" y2="60" gradientUnits="userSpaceOnUse">
      <stop stop-color="#4D9BFF"/>
      <stop offset="1" stop-color="#1A65E8"/>
    </linearGradient>
    <linearGradient id="patients-shine" x1="20" y1="8" x2="44" y2="28" gradientUnits="userSpaceOnUse">
      <stop stop-color="#fff" stop-opacity="0.45"/>
      <stop offset="1" stop-color="#fff" stop-opacity="0"/>
    </linearGradient>
    <linearGradient id="patients-back" x1="40" y1="18" x2="52" y2="46" gradientUnits="userSpaceOnUse">
      <stop stop-color="#B8D9FF"/>
      <stop offset="1" stop-color="#7EB8FF"/>
    </linearGradient>
    <linearGradient id="patients-front" x1="18" y1="18" x2="34" y2="46" gradientUnits="userSpaceOnUse">
      <stop stop-color="#FFFFFF"/>
      <stop offset="1" stop-color="#E8F2FF"/>
    </linearGradient>
  </defs>
  <rect x="2" y="2" width="60" height="60" rx="16" fill="url(#patients-bg)"/>
  <rect x="2" y="2" width="60" height="30" rx="16" fill="url(#patients-shine)"/>
  <!-- back person -->
  <circle cx="42" cy="24" r="7" fill="url(#patients-back)"/>
  <path d="M31 46c0-7.18 4.92-13 11-13s11 5.82 11 13v2H31v-2z" fill="url(#patients-back)"/>
  <!-- front person -->
  <circle cx="26" cy="24" r="8" fill="url(#patients-front)"/>
  <path d="M13 47c0-8.28 5.82-15 13-15s13 6.72 13 15v2H13v-2z" fill="url(#patients-front)"/>
</svg>
